<svg width="180" height="122" viewBox="0 0 180 122" fill="none" xmlns="http://www.w3.org/2000/svg">
<g filter="url(#filter0_dddd_29_263)">
<rect x="19.2157" y="5.23529" width="141.569" height="83.8235" rx="18.6275" fill="#072AC8"/>
</g>
<path d="M50.6915 30.3574V30.1116H50.6272L50.5528 30.2805L50.4788 30.1116H50.4141V30.3574H50.4598V30.1721L50.5293 30.332H50.5767L50.6462 30.1717V30.3574H50.6915ZM50.2834 30.3574V30.1535H50.3659V30.112H50.1556V30.1535H50.2381V30.3574H50.2834Z" fill="#F79410"/>
<path d="M43.4081 31.4102H37.8661V21.4874H43.4081V31.4102Z" fill="#FF5F00"/>
<path d="M38.221 26.4479C38.221 24.435 39.167 22.642 40.6401 21.4865C39.5629 20.6416 38.2033 20.1372 36.7257 20.1372C33.2277 20.1372 30.3922 22.9626 30.3922 26.4479C30.3922 29.9333 33.2277 32.7587 36.7257 32.7587C38.2033 32.7587 39.5629 32.2543 40.6401 31.4094C39.167 30.2539 38.221 28.4608 38.221 26.4479Z" fill="#EB001B"/>
<path d="M50.8826 26.4479C50.8826 29.9333 48.0471 32.7587 44.5491 32.7587C43.0715 32.7587 41.7119 32.2543 40.6343 31.4094C42.1078 30.2539 43.0538 28.4608 43.0538 26.4479C43.0538 24.435 42.1078 22.642 40.6343 21.4865C41.7119 20.6416 43.0715 20.1372 44.5491 20.1372C48.0471 20.1372 50.8826 22.9626 50.8826 26.4479Z" fill="#F79E1B"/>
<path d="M126.652 67.8042C127.308 67.2373 127.824 66.7728 128.199 66.4108C128.582 66.042 128.899 65.6595 129.152 65.2634C129.405 64.8672 129.531 64.4711 129.531 64.0749C129.531 63.6651 129.432 63.3441 129.234 63.1119C129.043 62.8797 128.739 62.7636 128.322 62.7636C127.919 62.7636 127.605 62.8933 127.38 63.1529C127.161 63.4056 127.045 63.7471 127.031 64.1774H125.904C125.925 63.3988 126.157 62.8046 126.601 62.3947C127.052 61.9781 127.622 61.7698 128.312 61.7698C129.057 61.7698 129.637 61.9747 130.054 62.3845C130.477 62.7943 130.689 63.3407 130.689 64.0237C130.689 64.5155 130.563 64.9902 130.31 65.4478C130.064 65.8986 129.767 66.305 129.419 66.667C129.077 67.0221 128.64 67.4353 128.107 67.9066L127.646 68.3164H130.894V69.2897H125.915V68.4394L126.652 67.8042ZM132.232 62.989V61.9235H134.363V69.3922H133.185V62.989H132.232ZM136.413 63.7676C136.454 63.1324 136.696 62.6372 137.14 62.2821C137.591 61.9269 138.164 61.7493 138.861 61.7493C139.339 61.7493 139.752 61.8347 140.101 62.0054C140.449 62.1762 140.712 62.4084 140.89 62.7021C141.067 62.9958 141.156 63.3271 141.156 63.6959C141.156 64.1193 141.043 64.4813 140.818 64.7819C140.593 65.0824 140.323 65.2839 140.009 65.3863V65.4273C140.412 65.5502 140.726 65.7756 140.951 66.1035C141.176 66.4245 141.289 66.8377 141.289 67.3431C141.289 67.7461 141.197 68.1047 141.013 68.4189C140.828 68.733 140.555 68.9823 140.193 69.1668C139.831 69.3443 139.397 69.4331 138.892 69.4331C138.154 69.4331 137.546 69.2453 137.068 68.8697C136.597 68.4872 136.344 67.9408 136.31 67.2304H137.437C137.464 67.5924 137.604 67.8895 137.857 68.1218C138.11 68.3472 138.451 68.4598 138.882 68.4598C139.298 68.4598 139.619 68.3472 139.845 68.1218C140.07 67.8895 140.183 67.5924 140.183 67.2304C140.183 66.7523 140.029 66.4142 139.722 66.2162C139.421 66.0113 138.957 65.9088 138.328 65.9088H138.062V64.9458H138.339C138.892 64.9389 139.312 64.8467 139.599 64.6692C139.892 64.4916 140.039 64.2115 140.039 63.8291C140.039 63.5012 139.933 63.2417 139.722 63.0504C139.51 62.8524 139.209 62.7533 138.82 62.7533C138.438 62.7533 138.141 62.8524 137.929 63.0504C137.717 63.2417 137.591 63.4807 137.55 63.7676H136.413ZM142.982 65.5605C142.982 64.3789 143.18 63.4568 143.576 62.7943C143.979 62.125 144.669 61.7903 145.645 61.7903C146.622 61.7903 147.309 62.125 147.705 62.7943C148.108 63.4568 148.309 64.3789 148.309 65.5605C148.309 66.7557 148.108 67.6915 147.705 68.3676C147.309 69.037 146.622 69.3717 145.645 69.3717C144.669 69.3717 143.979 69.037 143.576 68.3676C143.18 67.6915 142.982 66.7557 142.982 65.5605ZM147.162 65.5605C147.162 65.0072 147.124 64.5394 147.049 64.1569C146.981 63.7744 146.837 63.4637 146.619 63.2246C146.4 62.9787 146.076 62.8558 145.645 62.8558C145.215 62.8558 144.891 62.9787 144.672 63.2246C144.454 63.4637 144.307 63.7744 144.232 64.1569C144.163 64.5394 144.129 65.0072 144.129 65.5605C144.129 66.1342 144.163 66.6157 144.232 67.005C144.3 67.3944 144.443 67.7085 144.662 67.9476C144.887 68.1866 145.215 68.3062 145.645 68.3062C146.076 68.3062 146.4 68.1866 146.619 67.9476C146.844 67.7085 146.991 67.3944 147.059 67.005C147.128 66.6157 147.162 66.1342 147.162 65.5605Z" fill="#CCD0E8"/>
<circle opacity="0.3" cx="31.7893" cy="66.2402" r="1.39706" fill="#CCD0E8"/>
<circle opacity="0.3" cx="63.4559" cy="66.2402" r="1.39706" fill="#CCD0E8"/>
<circle opacity="0.3" cx="95.1225" cy="66.2402" r="1.39706" fill="#CCD0E8"/>
<circle opacity="0.3" cx="38.3088" cy="66.2402" r="1.39706" fill="#CCD0E8"/>
<circle opacity="0.3" cx="69.9754" cy="66.2402" r="1.39706" fill="#CCD0E8"/>
<circle opacity="0.3" cx="101.642" cy="66.2402" r="1.39706" fill="#CCD0E8"/>
<circle opacity="0.3" cx="44.8285" cy="66.2402" r="1.39706" fill="#CCD0E8"/>
<circle opacity="0.3" cx="76.4951" cy="66.2402" r="1.39706" fill="#CCD0E8"/>
<circle opacity="0.3" cx="108.162" cy="66.2402" r="1.39706" fill="#CCD0E8"/>
<circle opacity="0.3" cx="51.348" cy="66.2402" r="1.39706" fill="#CCD0E8"/>
<circle opacity="0.3" cx="83.0147" cy="66.2402" r="1.39706" fill="#CCD0E8"/>
<circle opacity="0.3" cx="114.681" cy="66.2402" r="1.39706" fill="#CCD0E8"/>
<defs>
<filter id="filter0_dddd_29_263" x="0.588247" y="0.578427" width="178.824" height="121.078" filterUnits="userSpaceOnUse" color-interpolation-filters="sRGB">
<feFlood flood-opacity="0" result="BackgroundImageFix"/>
<feColorMatrix in="SourceAlpha" type="matrix" values="0 0 0 0 0 0 0 0 0 0 0 0 0 0 0 0 0 0 127 0" result="hardAlpha"/>
<feOffset dy="0.6327"/>
<feGaussianBlur stdDeviation="0.4218"/>
<feColorMatrix type="matrix" values="0 0 0 0 0.141176 0 0 0 0 0.141176 0 0 0 0 0.133333 0 0 0 0.0278729 0"/>
<feBlend mode="normal" in2="BackgroundImageFix" result="effect1_dropShadow_29_263"/>
<feColorMatrix in="SourceAlpha" type="matrix" values="0 0 0 0 0 0 0 0 0 0 0 0 0 0 0 0 0 0 127 0" result="hardAlpha"/>
<feOffset dy="1.74933"/>
<feGaussianBlur stdDeviation="1.16622"/>
<feColorMatrix type="matrix" values="0 0 0 0 0.141176 0 0 0 0 0.141176 0 0 0 0 0.133333 0 0 0 0.04 0"/>
<feBlend mode="normal" in2="effect1_dropShadow_29_263" result="effect2_dropShadow_29_263"/>
<feColorMatrix in="SourceAlpha" type="matrix" values="0 0 0 0 0 0 0 0 0 0 0 0 0 0 0 0 0 0 127 0" result="hardAlpha"/>
<feOffset dy="4.21172"/>
<feGaussianBlur stdDeviation="2.80782"/>
<feColorMatrix type="matrix" values="0 0 0 0 0.141176 0 0 0 0 0.141176 0 0 0 0 0.133333 0 0 0 0.0521271 0"/>
<feBlend mode="normal" in2="effect2_dropShadow_29_263" result="effect3_dropShadow_29_263"/>
<feColorMatrix in="SourceAlpha" type="matrix" values="0 0 0 0 0 0 0 0 0 0 0 0 0 0 0 0 0 0 127 0" result="hardAlpha"/>
<feOffset dy="13.9706"/>
<feGaussianBlur stdDeviation="9.31373"/>
<feColorMatrix type="matrix" values="0 0 0 0 0.141176 0 0 0 0 0.141176 0 0 0 0 0.133333 0 0 0 0.08 0"/>
<feBlend mode="normal" in2="effect3_dropShadow_29_263" result="effect4_dropShadow_29_263"/>
<feBlend mode="normal" in="SourceGraphic" in2="effect4_dropShadow_29_263" result="shape"/>
</filter>
</defs>
</svg>
